####
#
# OBJ File Generated by Meshlab
#
####
# Object almost_isometric_bunny_low_poly.obj
#
# Vertices: 41
# Faces: 64
#
####
vn 0.321185 -0.920349 0.223156
v 0.341831 -0.302225 0.565252
vn 0.301381 -0.946969 0.111439
v 0.517419 -0.307708 0.266674
vn 0.853311 -0.072304 0.516365
v 1.161140 0.178131 0.460502
vn 0.750274 0.566259 0.341232
v 1.071344 0.436042 0.428997
vn 0.905952 0.337897 -0.255102
v 1.203146 0.301048 0.171692
vn 0.777784 0.476760 -0.409575
v 0.969023 0.427955 0.108281
vn 0.907818 0.373248 0.191185
v 0.920552 0.587883 0.386483
vn 0.753784 0.137776 0.642517
v 0.812120 0.501186 0.638202
vn 0.537800 -0.041180 0.842066
v 0.917186 0.217290 0.617487
vn 0.761716 -0.132893 -0.634136
v 0.590687 0.419741 -0.427634
vn 0.919275 0.126921 -0.372592
v 0.858818 0.800880 -0.100316
vn 0.833898 -0.016617 -0.551669
v 0.726361 0.724903 -0.333211
vn 0.858659 -0.044405 -0.510620
v 0.818131 0.530239 -0.157690
vn 0.866152 0.350567 -0.356206
v 0.760893 1.041192 -0.141828
vn 0.784853 -0.298051 -0.543296
v 1.113068 0.088103 0.036883
vn 0.543816 0.114269 -0.831388
v 0.979029 0.202629 -0.088602
vn 0.503235 -0.659794 -0.558056
v 0.928914 -0.100926 0.007890
vn 0.492327 -0.450354 -0.744846
v 0.710908 0.004730 -0.132915
vn 0.694265 -0.066841 -0.716609
v 0.782845 0.278238 -0.180829
vn 0.805144 0.347975 0.480268
v 0.660378 1.071696 0.693717
vn 0.836092 0.487694 0.251205
v 0.657789 1.310326 0.479381
vn 0.597196 -0.247721 0.762884
v 0.439049 0.051262 0.874837
vn 0.489364 -0.166828 0.855974
v 0.460705 0.309925 0.918195
vn 0.672207 -0.072785 0.736777
v 0.590801 0.537816 0.882482
vn 0.967170 0.206553 0.148046
v 0.894566 0.853871 0.344706
vn 0.878283 0.417819 0.232476
v 0.801255 1.097520 0.415025
vn 0.929721 0.352269 -0.107353
v 0.862934 1.002305 0.123984
vn 0.857251 0.510548 -0.066788
v 0.712256 1.262833 0.113214
vn 0.875529 0.186045 0.445911
v 0.819093 0.822582 0.598158
vn 0.692157 -0.358304 -0.626527
v 0.577237 0.113610 -0.365965
vn 0.980882 0.132420 -0.142604
v 0.917266 0.687678 0.115979
vn 0.408603 -0.788780 -0.459206
v 0.644537 -0.244795 0.013258
vn 0.532428 -0.565543 -0.629826
v 0.460521 -0.138714 -0.215778
vn 0.431840 -0.900043 0.058626
v 0.831402 -0.211251 0.275985
vn 0.511077 -0.583816 0.630841
v 0.952640 -0.063085 0.530839
vn 0.511378 -0.391845 0.764821
v 0.673293 0.010692 0.650124
vn 0.414882 -0.805303 0.423509
v 0.642782 -0.207511 0.522721
vn 0.793692 -0.607989 0.020056
v 1.111395 -0.024343 0.263003
vn 0.616389 -0.564251 0.549259
v 0.434737 -0.205887 0.812342
vn 0.793888 0.094218 0.600720
v 0.662054 0.796698 0.836351
vn 0.585002 -0.171665 0.792656
v 0.696061 0.259982 0.773907
# 41 vertices, 0 vertices normals

f 3//3 5//5 4//4
f 5//5 6//6 4//4
f 6//6 7//7 4//4
f 7//7 8//8 4//4
f 8//8 9//9 4//4
f 9//9 3//3 4//4
f 11//11 13//13 12//12
f 13//13 10//10 12//12
f 14//14 11//11 12//12
f 15//15 17//17 16//16
f 17//17 18//18 16//16
f 18//18 19//19 16//16
f 19//19 6//6 16//16
f 6//6 5//5 16//16
f 5//5 15//15 16//16
f 25//25 27//27 26//26
f 27//27 28//28 26//26
f 28//28 21//21 26//26
f 21//21 20//20 26//26
f 20//20 29//29 26//26
f 29//29 25//25 26//26
f 18//18 30//30 19//19
f 30//30 10//10 19//19
f 10//10 13//13 19//19
f 13//13 6//6 19//19
f 6//6 31//31 7//7
f 31//31 25//25 7//7
f 25//25 29//29 7//7
f 29//29 8//8 7//7
f 33//33 18//18 32//32
f 18//18 17//17 32//32
f 17//17 34//34 32//32
f 34//34 2//2 32//32
f 3//3 9//9 35//35
f 9//9 36//36 35//35
f 36//36 37//37 35//35
f 37//37 34//34 35//35
f 34//34 38//38 35//35
f 38//38 3//3 35//35
f 15//15 38//38 17//17
f 38//38 34//34 17//17
f 28//28 27//27 14//14
f 27//27 11//11 14//14
f 8//8 40//40 24//24
f 23//23 41//41 24//24
f 41//41 8//8 24//24
f 39//39 36//36 22//22
f 36//36 41//41 22//22
f 41//41 23//23 22//22
f 18//18 33//33 30//30
f 15//15 5//5 38//38
f 5//5 3//3 38//38
f 25//25 31//31 27//27
f 31//31 11//11 27//27
f 1//1 37//37 39//39
f 37//37 36//36 39//39
f 34//34 37//37 2//2
f 37//37 1//1 2//2
f 8//8 29//29 40//40
f 29//29 20//20 40//40
f 36//36 9//9 41//41
f 9//9 8//8 41//41
f 11//11 31//31 13//13
f 31//31 6//6 13//13
# 64 faces, 0 coords texture

# End of File
