# Blender 3.5.1
# www.blender.org
mtllib simple_triangles.mtl
o Plane
v 0.088574 0.000000 1.177147
v -1.088574 0.000000 -1.177147
v 1.000000 0.000000 -1.000000
v 0.088574 0.000000 1.177147
v -1.088574 0.000000 -1.177147
v -2.338948 0.000000 0.979985
v 2.231236 0.000000 1.102423
v 0.119788 0.000000 -2.781823
vn -0.0000 1.0000 -0.0000
vt 1.000000 0.000000
vt 0.000000 1.000000
vt 1.000000 1.000000
vt 1.000000 0.000000
vt 0.000000 1.000000
vt 1.000000 0.000000
vt 1.000000 1.000000
vt 0.000000 1.000000
s 0
f 1/1/1 3/3/1 2/2/1
f 1/1/1 2/2/1 5/5/1 4/4/1
f 4/4/1 5/5/1 6/6/1
f 3/3/1 1/1/1 7/7/1
f 2/2/1 3/3/1 8/8/1
